<svg xmlns="http://www.w3.org/2000/svg" xmlns:xlink="http://www.w3.org/1999/xlink" width="193" height="147" version="1.1" viewBox="0 0 193 147"><title>Gridline Numbers</title><desc>Created with Sketch.</desc><g id="Page-1" fill="none" fill-rule="evenodd" stroke="none" stroke-width="1"><g id="Artboard" transform="translate(-153.000000, -1922.000000)"><g id="Group-14" transform="translate(153.000000, 138.000000)"><g id="Group-13" transform="translate(0.000000, 1781.000000)"><g id="Group-2"><text id="1" fill="#000" font-family="OpenSans-Bold, Open Sans" font-size="10" font-weight="bold"><tspan x="13.604" y="11">1</tspan></text><text id="1" fill="#000" font-family="OpenSans-Bold, Open Sans" font-size="10" font-weight="bold"><tspan x=".85" y="25.421">1</tspan></text><text id="2" fill="#000" font-family="OpenSans-Bold, Open Sans" font-size="10" font-weight="bold"><tspan x="70.568" y="11">2</tspan></text><text id="3" fill="#000" font-family="OpenSans-Bold, Open Sans" font-size="10" font-weight="bold"><tspan x="128.383" y="11">3</tspan></text><text id="4" fill="#000" font-family="OpenSans-Bold, Open Sans" font-size="10" font-weight="bold"><tspan x="184.498" y="11">4</tspan></text><text id="2" fill="#000" font-family="OpenSans-Bold, Open Sans" font-size="10" font-weight="bold"><tspan x="0" y="81.407">2</tspan></text><text id="3" fill="#000" font-family="OpenSans-Bold, Open Sans" font-size="10" font-weight="bold"><tspan x=".85" y="138.241">3</tspan></text><rect id="Rectangle" width="47.013" height="45.005" x="21.555" y="26.6" stroke="#306FFD" stroke-width="4" rx="2"/><rect id="Rectangle" width="47.013" height="45.005" x="78.203" y="26.6" stroke="#306FFD" stroke-width="4" rx="2"/><rect id="Rectangle" width="47.013" height="45.005" x="134.851" y="26.6" stroke="#306FFD" stroke-width="4" rx="2"/><rect id="Rectangle" width="47.013" height="45.005" x="21.555" y="82.586" stroke="#306FFD" stroke-width="4" rx="2"/><rect id="Rectangle" width="47.013" height="45.005" x="78.203" y="82.586" stroke="#306FFD" stroke-width="4" rx="2"/><rect id="Rectangle" width="47.013" height="45.005" x="134.851" y="82.586" stroke="#306FFD" stroke-width="4" rx="2"/><g id="Group" stroke="#FF9400" stroke-linecap="square" stroke-width="2" opacity=".6" transform="translate(15.303965, 15.268912)"><path id="Line" d="M57.814978,0.424136437 L57.814978,123.423703"/><path id="Line" d="M114.779736,0.424136437 L114.779736,123.423703"/><path id="Line" d="M0.850220264,0.424136437 L0.850220264,123.423703"/><path id="Line" d="M171.744493,0.424136437 L171.744493,123.423703"/></g><path id="Line" stroke="#FF9400" stroke-linecap="square" stroke-width="2" d="M10.6277533,77.1928315 L192.439758,77.1928315" opacity=".6"/><path id="Line" stroke="#FF9400" stroke-linecap="square" stroke-width="2" d="M10.6277533,133.178841 L192.439758,133.178841" opacity=".6"/><path id="Line" stroke="#FF9400" stroke-linecap="square" stroke-width="2" d="M10.6277533,21.2068218 L192.439758,21.2068218" opacity=".6"/></g></g></g></g></g></svg>